<svg preserveAspectRatio="xMidYMid meet" data-bbox="85.3 67.89 1732.05 515.11" viewBox="85.3 67.89 1732.05 515.11" xmlns="http://www.w3.org/2000/svg" data-type="color" role="presentation" aria-hidden="true" aria-label="">
    <g>
        <path d="m332.37 195.03-.27.12c-.06-.12-.11-.24-.16-.37-3.67 2.9-7.26 5.86-10.78 8.88a29.38 29.38 0 0 1-3.75-14.42c0-2.37.28-4.67.81-6.88 4.43 2.62 8.78 5.33 13.04 8.15.13 1.59.52 3.11 1.11 4.52Z" fill="#3300bc" data-color="1"></path>
        <path d="M500.55 147.95c-1.57 3.5-3.8 6.64-6.54 9.24-3.93-3.37-7.98-6.6-12.14-9.69 3.03-2.38 5.11-5.91 5.57-9.94 4.49 3.31 8.87 6.78 13.11 10.39Z" fill="#3300bc" data-color="1"></path>
        <path d="M454.12 332.22a15.2 15.2 0 0 0-5.07 4.89 361.84 361.84 0 0 0-4.3-10.06 446.8 446.8 0 0 1 9.37 5.17Z" fill="#3300bc" data-color="1"></path>
        <path d="M240.97 504.5a29.42 29.42 0 0 1 5.28 16.87l-5.28-16.87Z" fill="#3300bc" data-color="1"></path>
        <path d="M216.57 106.25c8.59 0 16.33 3.66 21.72 9.51-4.85 2.41-9.61 4.99-14.26 7.73a14.82 14.82 0 0 0-8.37-2.57c-8.23 0-14.9 6.67-14.9 14.9 0 1.06.11 2.1.32 3.1-3.9 2.97-7.7 6.06-11.4 9.27a29.31 29.31 0 0 1-2.7-12.35c0-16.35 13.25-29.59 29.59-29.59Z" fill="#3300bc" data-color="1"></path>
        <path d="M465.12 122.95a14.9 14.9 0 0 0-6.91 9.18c-4.07-2.3-8.22-4.46-12.44-6.49a29.47 29.47 0 0 1 6.01-9.84c4.53 2.24 8.98 4.63 13.34 7.15Z" fill="#3300bc" data-color="1"></path>
        <path d="M481.87 147.5c4.16 3.09 8.21 6.32 12.14 9.69a29.424 29.424 0 0 1-20.45 8.22c-10.92 0-20.47-5.92-25.59-14.73.18-.06.35-.12.53-.18l-4-15c-.18.06-.35.11-.53.17.02-3.52.65-6.9 1.8-10.03 4.22 2.03 8.37 4.19 12.44 6.49a14.9 14.9 0 0 0-.46 3.68c0 8.22 6.67 14.89 14.9 14.89 3.48 0 6.68-1.2 9.22-3.2Z" fill="#3300bc" data-color="1"></path>
        <path d="M238.79 309.22c3.09 3.24 6.91 5.77 11.21 7.34-25.15 51.95-36.28 111.61-33.34 175.22-3.47 0-6.8.6-9.9 1.7-8.53-61 2.81-125.88 32.03-184.26Z" fill="#3300bc" data-color="1"></path>
        <path d="M250.17 276.54c-5.58-.14-11.22-.19-16.91-.15 4.68-10.17 14.96-17.23 26.89-17.23 2.94 0 5.79.43 8.47 1.24-3.17 4.32-6.22 8.7-9.16 13.13 2.02.03 3.94.45 5.69 1.21l-.11.27c-1.78-.75-3.74-1.17-5.79-1.17a14.9 14.9 0 0 0-10.54 4.36l-.21-.21c.52-.53 1.08-1.01 1.67-1.45Z" fill="#3300bc" data-color="1"></path>
        <path d="M233.26 276.39c5.69-.04 11.33.01 16.91.15-.59.44-1.15.92-1.67 1.45a15.102 15.102 0 0 0-4.48 10.75c0 .66.06 1.3.14 1.94-4.5-.07-9.01-.07-13.53.01-.05-.64-.07-1.28-.07-1.93 0-4.42.97-8.61 2.7-12.37Z" fill="#3300bc" data-color="1"></path>
        <path d="M189.68 148.19c2 4.36 5.03 8.14 8.78 11.04C183.34 172.54 176 183 176 183c-9 4-13-4-11-10 7.64-8.9 15.89-17.19 24.68-24.81Z" fill="#3300bc" data-color="1"></path>
        <path d="M443.97 135.82c0 5.42 1.45 10.49 4 14.86-25.75 8.61-50.33 19.37-72.14 31.86a29.3 29.3 0 0 0-6.93-13.2c22.82-13.61 48.08-25.14 75.07-33.67v.15Z" fill="#3300bc" data-color="1"></path>
        <path d="M233.26 276.39a29.52 29.52 0 0 0-2.7 12.37c0 .65.02 1.29.07 1.93-28.18.41-56.89 3.47-86.15 9.17 0-5.43-1.46-10.52-4.02-14.89v-.03c32.42-5.54 63.32-8.32 92.8-8.55Z" fill="#3300bc" data-color="1"></path>
        <path d="M463.33 328.67c.21.53.43 1.06.63 1.6-.52-.08-1.04-.13-1.57-.15.32-.48.63-.97.94-1.45Z" fill="#3300bc" data-color="1"></path>
        <path d="M238.29 115.76c3.19 3.43 5.56 7.62 6.82 12.27-5.15 2.55-10 5.21-14.55 7.91v-.12c0-5.13-2.59-9.65-6.53-12.33 4.65-2.74 9.41-5.32 14.26-7.73Z" fill="#3300bc" data-color="1"></path>
        <path d="M280.11 266.91c-2.63 3.52-5.18 7.09-7.63 10.72l-3.08-.21a14.915 14.915 0 0 0-4.25-2.68c-1.75-.76-3.67-1.18-5.69-1.21 2.94-4.43 5.99-8.81 9.16-13.13a29.33 29.33 0 0 1 11.49 6.51Z" fill="#3300bc" data-color="1"></path>
        <path d="m144.48 299.86-4.02-14.89c2.56 4.37 4.02 9.46 4.02 14.89Z" fill="#3300bc" data-color="1"></path>
        <path d="m140.46 284.97 4.02 14.89c0 14.46-10.37 26.51-24.1 29.07.03-5.4.26-10.72.66-15.97 4.67-2.51 7.85-7.44 7.85-13.12 0-4.25-1.78-8.09-4.65-10.8 1.02-5.34 2.24-10.59 3.64-15.77 5.27 2.57 9.65 6.66 12.58 11.7Z" fill="#3300bc" data-color="1"></path>
        <path d="M458.32 362.26c1.39 4.17 2.71 8.38 3.95 12.65-4.16-.06-8.1-.99-11.67-2.6 2.62-3.3 5.19-6.65 7.72-10.05Z" fill="#3300bc" data-color="1"></path>
        <path d="M516.19 215.54c4.06 2.11 8.67 3.29 13.55 3.29-12.24 39.49-27.8 74.43-46.17 105.47a29.418 29.418 0 0 0-12.79-7.45 443.445 443.445 0 0 0 45.4-101.31h.01Z" fill="#3300bc" data-color="1"></path>
        <path d="M244.1 532.43a29.393 29.393 0 0 1-7.95 11.19c-5.1-2.62-10.09-5.42-14.97-8.39 4.52-1.77 7.96-5.68 9.08-10.49 4.51 2.72 9.13 5.29 13.84 7.69Z" fill="#3300bc" data-color="1"></path>
        <path d="M475.18 363.27c2.24 1.49 4.5 3.02 6.76 4.59a28.625 28.625 0 0 1-4.59 3.21c-.7-2.61-1.42-5.21-2.17-7.8Z" fill="#3300bc" data-color="1"></path>
        <path d="M534.73 202.92c2.83 4.19 5.52 8.49 8.07 12.87a29.345 29.345 0 0 1-13.06 3.04l-13.55-3.29h-.01c-9.52-4.91-16.03-14.84-16.03-26.3 0-7.47 2.77-14.3 7.36-19.51 3.3 3.33 6.51 6.77 9.6 10.31a14.834 14.834 0 0 0-3.18 9.19c0 8.23 6.68 14.9 14.9 14.9 2.09 0 4.09-.43 5.9-1.21Z" fill="#3300bc" data-color="1"></path>
        <path d="M559.33 189.24c0 7.54-2.82 14.42-7.47 19.64-2.88-4.88-5.92-9.64-9.13-14.28.65-1.67 1-3.48 1-5.37 0-8.23-6.67-14.9-14.9-14.9-.56 0-1.12.03-1.66.1-3.43-4-7-7.88-10.69-11.64 3.99-2.01 8.49-3.14 13.26-3.14 16.34 0 29.59 13.25 29.59 29.59Z" fill="#3300bc" data-color="1"></path>
        <path d="m216.66 491.78-9.9 1.7c3.1-1.1 6.43-1.7 9.9-1.7Z" fill="#3300bc" data-color="1"></path>
        <path d="M274.15 288.74c0-6.17-3.76-11.47-9.11-13.73l.11-.27c1.57.65 3 1.56 4.25 2.68.04.04.09.08.13.13.03.01.05.03.07.06.13.12.26.25.39.38.07.05.12.11.17.17a12.168 12.168 0 0 1 .95 1.07 15.066 15.066 0 0 1 3.36 9.51c0 1.18-.15 2.32-.4 3.42 5.1.43 10.19.96 15.25 1.58-2.37 13.97-14.53 24.61-29.17 24.61-3.57 0-6.99-.63-10.15-1.79 2.09-4.34 4.29-8.62 6.58-12.84-1.38-.25-2.7-.68-3.92-1.28l.13-.27c1.95.94 4.15 1.47 6.46 1.47 8.22 0 14.9-6.67 14.9-14.9Z" fill="#3300bc" data-color="1"></path>
        <path d="M489.5 450.99c.19 18.01.22 34.37-.38 44.37a29.264 29.264 0 0 0-10.37-1.88c-1.89 0-3.74.18-5.53.52 1.75-7.96 2.02-23.99 1.98-41.58 3.87-7.35 10.57-7.5 14.3-1.43Z" fill="#3300bc" data-color="1"></path>
        <path d="M481.94 367.86c3.88-3.3 6.9-7.6 8.66-12.49 23.62 16.71 46.9 36.63 67.79 57.03-1.75 4.52-3.65 8.98-5.68 13.36-22.33-20.86-46.89-41.38-70.77-57.9Z" fill="#3300bc" data-color="1"></path>
        <path d="M196.4 499.81a29.447 29.447 0 0 0-7.66 11.76c-50.69-43.92-82.76-108.76-82.76-181.1v-2.38c2.81.88 5.8 1.36 8.9 1.36 1.88 0 3.71-.17 5.49-.52-.01.5-.01 1.01-.01 1.52 0 67.36 29.38 127.85 76.03 169.36Z" fill="#3300bc" data-color="1"></path>
        <path d="M529.74 218.83c-4.88 0-9.49-1.18-13.55-3.29l13.55 3.29Z" fill="#3300bc" data-color="1"></path>
        <path d="M486.03 411.78c-2.17 6.79-8.71 8.24-14.22 2.03-2.64-13.37-5.82-26.34-9.54-38.9.16.01.33.01.49.01 5.3 0 10.28-1.4 14.59-3.85 3.57 13.36 6.44 26.96 8.68 40.71Z" fill="#3300bc" data-color="1"></path>
        <path d="M332.1 195.15c1.91 4.55 5.96 7.96 10.89 8.98-4.23 3.17-8.36 6.41-12.38 9.75-3.91-2.6-7.16-6.11-9.45-10.22 3.52-3.02 7.11-5.98 10.78-8.88.05.13.1.25.16.37Z" fill="#3300bc" data-color="1"></path>
        <path d="M527.17 174.43c-4.08.44-7.66 2.54-10.06 5.61-3.09-3.54-6.3-6.98-9.6-10.31 2.49-2.86 5.54-5.23 8.97-6.94 3.69 3.76 7.26 7.64 10.69 11.64Z" fill="#3300bc" data-color="1"></path>
        <path d="M114.89 270.27c-.42 0-.84 0-1.26.03 6.56-24.82 17.2-47.87 31.37-69.3 6-4 13 1 12 8-12.97 19.9-22.9 41.29-29.12 64.27-3.92-1.92-8.33-3-12.99-3Z" fill="#3300bc" data-color="1"></path>
        <path d="M332.37 195.03c2.26 5.35 7.56 9.1 13.73 9.1 1.23 0 2.42-.15 3.56-.43 4.44 3.42 8.77 6.98 12.99 10.66-4.54 2.84-9.9 4.47-15.65 4.47-6.06 0-11.7-1.82-16.39-4.95 4.02-3.34 8.15-6.58 12.38-9.75-4.93-1.02-8.98-4.43-10.89-8.98l.27-.12Z" fill="#3300bc" data-color="1"></path>
        <path d="M463.1 525.14c.59 4.26 2.99 7.95 6.4 10.25a235.86 235.86 0 0 1-12.89 7.29 29.08 29.08 0 0 1-6.04-10.58c4.26-2.19 8.44-4.51 12.53-6.96Z" fill="#3300bc" data-color="1"></path>
        <path d="M457.53 359.89c-4.44-1.3-8.03-4.58-9.76-8.81-2.94 3.96-5.92 7.84-8.94 11.65a29.434 29.434 0 0 1-5.66-17.4c0-2.18.24-4.3.69-6.35 4.28 2.22 8.55 4.53 12.8 6.92 0-.2-.03-.39-.03-.58 0-3.03.88-5.84 2.42-8.21.05.12.1.24.14.36a14.8 14.8 0 0 0-2.24 7.85c0 6.69 4.4 12.34 10.47 14.23.04.11.08.23.11.34Z" fill="#3300bc" data-color="1"></path>
        <path d="M500.55 147.95c5.54 4.7 10.85 9.65 15.93 14.84a29.155 29.155 0 0 0-8.97 6.94c-4.33-4.36-8.83-8.55-13.5-12.54 2.74-2.6 4.97-5.74 6.54-9.24Z" fill="#3300bc" data-color="1"></path>
        <path d="M121.04 312.96c-.4 5.25-.63 10.57-.66 15.97-1.78.35-3.61.52-5.49.52-3.1 0-6.09-.48-8.9-1.36.05-5.17.26-10.27.62-15.31 2.18 1.25 4.7 1.96 7.38 1.96s4.95-.64 7.05-1.78Z" fill="#3300bc" data-color="1"></path>
        <path d="M272.48 277.63c-.42.59-.82 1.19-1.22 1.79-.05-.06-.1-.13-.15-.19a12.168 12.168 0 0 0-.95-1.07.912.912 0 0 0-.17-.17c-.12-.13-.25-.26-.39-.38a.134.134 0 0 0-.07-.06c-.04-.05-.09-.09-.13-.13l3.08.21Z" fill="#3300bc" data-color="1"></path>
        <path d="M207.41 509.01c-3.95 2.68-6.55 7.2-6.55 12.34v.04c-4.15-3.14-8.19-6.42-12.12-9.82 1.58-4.53 4.24-8.55 7.66-11.76 3.57 3.18 7.24 6.25 11.01 9.2Z" fill="#3300bc" data-color="1"></path>
        <path d="M337.7 176.92c-3.93 2.69-6.5 7.2-6.5 12.31 0 .43.02.86.06 1.28-4.26-2.82-8.61-5.53-13.04-8.15 1.17-4.92 3.57-9.37 6.86-12.99 4.3 2.45 8.51 4.97 12.62 7.55Z" fill="#3300bc" data-color="1"></path>
        <path d="M503.15 135.82c0 4.32-.93 8.43-2.6 12.13-4.24-3.61-8.62-7.08-13.11-10.39.08-.57.11-1.16.11-1.75 0-8.23-6.67-14.9-14.9-14.9-2.74 0-5.32.74-7.53 2.04-4.36-2.52-8.81-4.91-13.34-7.15 5.4-5.88 13.16-9.57 21.78-9.57 16.34 0 29.59 13.25 29.59 29.59Z" fill="#3300bc" data-color="1"></path>
        <path d="M449.05 337.11a15.2 15.2 0 0 1 5.07-4.89 446.8 446.8 0 0 0-9.37-5.17c-.56-1.26-1.12-2.52-1.71-3.77 4.12-3.7 9.28-6.25 14.99-7.16 1.85 4.15 3.62 8.33 5.3 12.55-.31.48-.62.97-.94 1.45.53.02 1.05.07 1.57.15.05.11.09.21.13.32a14.87 14.87 0 0 0-14.9 6.88c-.04-.12-.09-.24-.14-.36Z" fill="#3300bc" data-color="1"></path>
        <path d="M221.18 535.23c4.88 2.97 9.87 5.77 14.97 8.39a29.39 29.39 0 0 1-19.49 7.34c-16.34 0-29.59-13.25-29.59-29.59 0-3.43.58-6.73 1.67-9.8 3.93 3.4 7.97 6.68 12.12 9.82.02 8.21 6.68 14.86 14.9 14.86 1.91 0 3.74-.36 5.42-1.02Z" fill="#3300bc" data-color="1"></path>
        <path d="M459.72 360.37c-.46.63-.93 1.26-1.4 1.89-.25-.79-.52-1.58-.79-2.37.71.22 1.44.38 2.19.48Z" fill="#3300bc" data-color="1"></path>
        <path d="M321.16 203.66c2.29 4.11 5.54 7.62 9.45 10.22-19.26 15.93-36.1 33.7-50.5 53.03a29.33 29.33 0 0 0-11.49-6.51 339.691 339.691 0 0 1 52.54-56.74Z" fill="#3300bc" data-color="1"></path>
        <path d="M468.56 358.97c2.2 1.39 4.4 2.82 6.62 4.3.75 2.59 1.47 5.19 2.17 7.8a29.436 29.436 0 0 1-14.59 3.85c-.16 0-.33 0-.49-.01-1.24-4.27-2.56-8.48-3.95-12.65.47-.63.94-1.26 1.4-1.89-.75-.1-1.48-.26-2.19-.48-.03-.11-.07-.23-.11-.34 1.4.44 2.89.67 4.43.67 4.34 0 8.24-1.85 10.96-4.81.04.11.08.21.11.32a14.852 14.852 0 0 1-4.36 3.24Z" fill="#3300bc" data-color="1"></path>
        <path d="M449.05 337.11a14.985 14.985 0 0 0-2.42 8.21c0 .19.02.38.03.58-4.25-2.39-8.52-4.7-12.8-6.92a29.385 29.385 0 0 1 7.28-13.83c1.21.62 2.41 1.26 3.61 1.9 1.48 3.32 2.91 6.67 4.3 10.06Z" fill="#3300bc" data-color="1"></path>
        <path d="m242.55 150 3.61-14.16c0 5.13-1.31 9.96-3.61 14.16Z" fill="#3300bc" data-color="1"></path>
        <path d="M470.78 316.85c-2.43 4-4.92 7.94-7.45 11.82-1.68-4.22-3.45-8.4-5.3-12.55 1.54-.25 3.12-.38 4.73-.38 2.78 0 5.47.38 8.02 1.11Z" fill="#3300bc" data-color="1"></path>
        <path d="M271.11 279.23c.05.06.1.13.15.19-.05-.07-.1-.13-.15-.19Z" fill="#3300bc" data-color="1"></path>
        <path d="M201.08 138.92c1.04 4.91 4.5 8.93 9.07 10.75-4.32 3.28-8.21 6.5-11.69 9.56-3.75-2.9-6.78-6.68-8.78-11.04 3.7-3.21 7.5-6.3 11.4-9.27Z" fill="#3300bc" data-color="1"></path>
        <path d="m444.5 135.5 4 15c-.18.06-.35.12-.53.18-2.55-4.37-4-9.44-4-14.86v-.15c.18-.06.35-.11.53-.17Z" fill="#3300bc" data-color="1"></path>
        <path d="M113.63 270.3c-1.31 4.97-2.46 10.01-3.44 15.13-6.39 1.68-11.1 7.49-11.1 14.41 0 5.54 3.03 10.38 7.52 12.94-.36 5.04-.57 10.14-.62 15.31C94 324.31 85.3 313.1 85.3 299.86c0-15.92 12.57-28.9 28.33-29.56Z" fill="#3300bc" data-color="1"></path>
        <path d="M451.78 115.8a29.47 29.47 0 0 0-6.01 9.84C415.92 111.24 382.4 103.39 347 104c-41.91.72-75.73 11.06-101.89 24.03a29.241 29.241 0 0 0-6.82-12.27c32.08-15.99 68.37-24.79 107.19-24.79s74.27 8.93 106.3 24.83Z" fill="#3300bc" data-color="1"></path>
        <path d="M252.66 302.44c1.22.6 2.54 1.03 3.92 1.28-2.29 4.22-4.49 8.5-6.58 12.84-4.3-1.57-8.12-4.1-11.21-7.34 2.24-4.48 4.58-8.91 7.03-13.3 1.53 2.84 3.93 5.13 6.84 6.52Z" fill="#3300bc" data-color="1"></path>
        <path d="M245.11 128.03a29.21 29.21 0 0 1 1.05 7.81L242.55 150c-5.02 9.19-14.77 15.43-25.98 15.43-6.82 0-13.11-2.31-18.11-6.2 3.48-3.06 7.37-6.28 11.69-9.56 1.7.68 3.56 1.05 5.51 1.05 8.19 0 14.83-6.61 14.9-14.78 4.55-2.7 9.4-5.36 14.55-7.91Z" fill="#3300bc" data-color="1"></path>
        <path d="M483.57 324.3c-2.74 4.63-5.55 9.17-8.41 13.63-2.28-4.08-6.37-7-11.2-7.66-.2-.54-.42-1.07-.63-1.6 2.53-3.88 5.02-7.82 7.45-11.82 4.9 1.37 9.28 3.97 12.79 7.45Z" fill="#3300bc" data-color="1"></path>
        <path d="M450.57 532.1a29.08 29.08 0 0 0 6.04 10.58c-33.21 17.43-71.02 27.29-111.13 27.29s-76.55-9.51-109.33-26.35c3.46-3.02 6.21-6.85 7.95-11.19 30.88 15.77 65.85 24.66 102.91 24.66s72.52-9.02 103.56-24.99Z" fill="#3300bc" data-color="1"></path>
        <path d="M457.53 359.89c.27.79.54 1.58.79 2.37-2.53 3.4-5.1 6.75-7.72 10.05a29.592 29.592 0 0 1-11.77-9.58c3.02-3.81 6-7.69 8.94-11.65 1.73 4.23 5.32 7.51 9.76 8.81Z" fill="#3300bc" data-color="1"></path>
        <path d="M441.14 325.15a29.385 29.385 0 0 0-7.28 13.83c-46.32-24.16-94.51-39.17-144.54-45.24.28-1.62.42-3.28.42-4.98 0-3.41-.58-6.69-1.64-9.73 56.22 5.99 106.91 21.94 153.04 46.12Z" fill="#3300bc" data-color="1"></path>
        <path d="M458.03 316.12c-5.71.91-10.87 3.46-14.99 7.16-19.72-43.08-46.77-79.73-80.39-108.92 4.51-2.81 8.22-6.81 10.66-11.56 38.11 31.98 65.75 70.73 84.72 113.32Z" fill="#3300bc" data-color="1"></path>
        <path d="M361.14 191.48c4.73-3.07 9.64-6.05 14.69-8.94.51 2.15.77 4.4.77 6.7 0 4.89-1.18 9.5-3.29 13.56-4.12-3.45-8.35-6.82-12.72-10.11.16-.63.27-1.28.33-1.94l.3.03c-.02.24-.05.47-.08.7Z" fill="#3300bc" data-color="1"></path>
        <path d="M489.12 495.36c-.1 1.69-.21 3.19-.35 4.49l-16.2-3.45c.24-.69.46-1.49.65-2.4 1.79-.34 3.64-.52 5.53-.52 3.65 0 7.14.66 10.37 1.88Z" fill="#3300bc" data-color="1"></path>
        <path d="M443.04 323.28c.59 1.25 1.15 2.51 1.71 3.77-1.2-.64-2.4-1.28-3.61-1.9.59-.66 1.23-1.28 1.9-1.87Z" fill="#3300bc" data-color="1"></path>
        <path d="M475.18 363.27c-2.22-1.48-4.42-2.91-6.62-4.3 1.65-.81 3.13-1.91 4.36-3.24.78 2.51 1.53 5.02 2.26 7.54Z" fill="#3300bc" data-color="1"></path>
        <path d="M127.88 273.27c-1.4 5.18-2.62 10.43-3.64 15.77-2.67-2.54-6.28-4.1-10.25-4.1-1.31 0-2.59.17-3.8.49.98-5.12 2.13-10.16 3.44-15.13a29.456 29.456 0 0 1 14.25 2.97Z" fill="#3300bc" data-color="1"></path>
        <path d="M504.89 509.2a29.47 29.47 0 0 1 3.45 13.87c0 16.34-13.24 29.59-29.59 29.59-8.82 0-16.74-3.86-22.14-9.98 4.38-2.3 8.68-4.73 12.89-7.29 2.38 1.63 5.26 2.57 8.35 2.57 8.22 0 14.9-6.68 14.9-14.9 0-1.17-.14-2.31-.39-3.41 4.3-3.34 8.48-6.82 12.53-10.45Z" fill="#3300bc" data-color="1"></path>
        <path d="M361 189.23c0-8.23-6.67-14.9-14.9-14.9-3.12 0-6.01.96-8.4 2.59-4.11-2.58-8.32-5.1-12.62-7.55 5.41-5.97 13.23-9.72 21.92-9.72s16.49 3.74 21.9 9.69c-4.45 2.65-8.81 5.38-13.07 8.19 3.35 2.79 5.49 6.99 5.49 11.7 0 .52-.03 1.04-.1 1.55l-.3-.03c.05-.5.08-1.01.08-1.52Z" fill="#3300bc" data-color="1"></path>
        <path d="M463.96 330.27c4.83.66 8.92 3.58 11.2 7.66 2.86-4.46 5.67-9 8.41-13.63 5.42 5.36 8.78 12.81 8.78 21.03 0 3.52-.62 6.9-1.75 10.04-4.52-3.19-9.04-6.27-13.57-9.21-.2 3.7-1.72 7.04-4.11 9.57-.03-.11-.07-.21-.11-.32 2.45-2.65 3.94-6.2 3.94-10.09 0-7.47-5.49-13.65-12.66-14.73-.04-.11-.08-.21-.13-.32Z" fill="#3300bc" data-color="1"></path>
        <path d="M551.86 208.88c-2.52 2.86-5.6 5.22-9.06 6.91-2.55-4.38-5.24-8.68-8.07-12.87 3.66-1.58 6.56-4.59 8-8.32 3.21 4.64 6.25 9.4 9.13 14.28Z" fill="#3300bc" data-color="1"></path>
        <path d="M246.25 521.37c0-6.27-1.95-12.09-5.28-16.87 59.02-17.81 136.87-64.87 197.86-141.77 3 4.13 7.06 7.46 11.77 9.58-54.33 68.64-125.17 114.58-204.35 149.06Z" fill="#3300bc" data-color="1"></path>
        <path d="M280.11 266.91c3.59 3.28 6.36 7.43 7.99 12.12a462.27 462.27 0 0 0-15.62-1.4c2.45-3.63 5-7.2 7.63-10.72Z" fill="#3300bc" data-color="1"></path>
        <path d="M497.35 500.06c3.09 2.49 5.67 5.6 7.54 9.14-4.05 3.63-8.23 7.11-12.53 10.45-.96-4.09-3.6-7.53-7.16-9.55 4.17-3.21 8.22-6.56 12.15-10.04Z" fill="#3300bc" data-color="1"></path>
        <path d="M558.39 412.4c9.86-25.42 15.27-53.05 15.27-81.95 0-41.66-11.24-80.91-30.86-114.66 3.46-1.69 6.54-4.05 9.06-6.91 21.04 35.64 33.12 77.2 33.12 121.59 0 71.05-30.94 134.88-80.09 178.73a29.381 29.381 0 0 0-7.54-9.14c23.2-20.58 42.14-45.84 55.36-74.3.27.25.53.49.79.74l5-14s-.07-.07-.11-.1Z" fill="#3300bc" data-color="1"></path>
        <path d="M373.31 202.8a29.586 29.586 0 0 1-10.66 11.56c-4.22-3.68-8.55-7.24-12.99-10.66 5.4-1.32 9.65-5.59 10.93-11.01 4.37 3.29 8.6 6.66 12.72 10.11Z" fill="#3300bc" data-color="1"></path>
        <path d="M449.16 523.07c0-14.45 10.36-26.48 24.06-29.07-.19.91-.41 1.71-.65 2.4l16.2 3.45c.14-1.3.25-2.8.35-4.49 3 1.11 5.78 2.71 8.23 4.7-3.93 3.48-7.98 6.83-12.15 10.04a14.87 14.87 0 0 0-7.35-1.94c-8.23 0-14.9 6.67-14.9 14.9 0 .71.05 1.4.15 2.08-4.09 2.45-8.27 4.77-12.53 6.96-.92-2.85-1.41-5.88-1.41-9.03Z" fill="#3300bc" data-color="1"></path>
        <path d="M289.74 288.76c0 1.7-.14 3.36-.42 4.98-5.06-.62-10.15-1.15-15.25-1.58.25-1.1.4-2.24.4-3.42 0-3.52-1.2-6.75-3.21-9.32.4-.6.8-1.2 1.22-1.79 5.25.38 10.46.85 15.62 1.4 1.06 3.04 1.64 6.32 1.64 9.73Z" fill="#3300bc" data-color="1"></path>
        <path d="M325.08 169.37a29.449 29.449 0 0 0-6.86 12.99c-23.06-13.62-48.34-24.48-75.67-32.36 2.3-4.2 3.61-9.03 3.61-14.16 29.31 8.92 55.54 20.22 78.92 33.53Z" fill="#3300bc" data-color="1"></path>
        <path d="M481.94 367.86c-2.26-1.57-4.52-3.1-6.76-4.59-.73-2.52-1.48-5.03-2.26-7.54 2.39-2.53 3.91-5.87 4.11-9.57 4.53 2.94 9.05 6.02 13.57 9.21a29.572 29.572 0 0 1-8.66 12.49Z" fill="#3300bc" data-color="1"></path>
        <path d="M368.9 169.34a29.3 29.3 0 0 1 6.93 13.2c-5.05 2.89-9.96 5.87-14.69 8.94.03-.23.06-.46.08-.7.07-.51.1-1.03.1-1.55 0-4.71-2.14-8.91-5.49-11.7 4.26-2.81 8.62-5.54 13.07-8.19Z" fill="#3300bc" data-color="1"></path>
        <path d="m240.97 504.5 5.28 16.87c0 3.91-.76 7.65-2.15 11.06-4.71-2.4-9.33-4.97-13.84-7.69.26-1.09.39-2.22.39-3.39 0-8.23-6.67-14.9-14.89-14.9-3.1 0-5.97.94-8.35 2.56-3.77-2.95-7.44-6.02-11.01-9.2 2.95-2.78 6.47-4.95 10.36-6.33l9.9-1.7c10.07 0 18.97 5.03 24.31 12.72Z" fill="#3300bc" data-color="1"></path>
        <path d="M244.35 288.74c0 5.92 3.45 11.02 8.44 13.43l-.13.27a15.245 15.245 0 0 1-6.84-6.52c-2.45 4.39-4.79 8.82-7.03 13.3-4.69-4.88-7.71-11.35-8.16-18.53 4.52-.08 9.03-.08 13.53-.01-.08-.64-.14-1.28-.14-1.94 0-4.21 1.72-8.01 4.48-10.75l.21.21c-2.69 2.7-4.36 6.42-4.36 10.54Z" fill="#3300bc" data-color="1"></path>
        <path d="m558.5 412.5-5 14c-.26-.25-.52-.49-.79-.74 2.03-4.38 3.93-8.84 5.68-13.36.04.03.07.06.11.1Z" fill="#3300bc" data-color="1"></path>
        <path fill="#3300bc" d="M675 79v504h-14V79h14z" data-color="1"></path>
        <path d="M866.36 298.75c-27.15 0-50.34-4.65-69.58-13.95-19.24-9.3-33.99-22.6-44.25-39.92-10.26-17.31-15.39-37.94-15.39-61.88 0-18.81 3.21-35.38 9.62-49.7 6.41-14.32 15.34-26.34 26.77-36.07 11.43-9.72 24.74-17.04 39.92-21.96 15.18-4.92 31.42-7.38 48.74-7.38 10.04 0 20.2.96 30.46 2.89a184.26 184.26 0 0 1 30.14 8.34l10.26 4.17-7.38 32.38-12.18-2.57c-8.98-1.92-17.69-3.47-26.13-4.65-8.45-1.17-16.41-1.76-23.89-1.76-16.25 0-30.62 2.78-43.13 8.34-12.5 5.56-22.34 13.95-29.5 25.17-7.16 11.22-10.74 25.6-10.74 43.13s3.42 31.8 10.26 43.45c6.84 11.65 16.78 20.42 29.82 26.29 13.04 5.88 28.75 8.82 47.13 8.82 6.2 0 12.71-.43 19.56-1.28 6.84-.85 13.68-2.13 20.52-3.85v-51.3h-60.92v-36.87H949.4v109.66c-7.49 3.85-15.82 7.32-25.01 10.42-9.19 3.1-18.71 5.56-28.54 7.38-9.83 1.81-19.67 2.72-29.5 2.72Z" fill="#3300bc" data-color="1"></path>
        <path d="M1098.18 298.75c-23.09 0-43.18-4.86-60.28-14.59-17.1-9.72-30.36-23.25-39.76-40.56-9.41-17.31-14.11-37.52-14.11-60.6s4.81-42.97 14.43-60.28c9.62-17.31 23.03-30.78 40.24-40.4 17.21-9.62 37.03-14.43 59.48-14.43s43.5 4.86 60.6 14.59 30.35 23.25 39.76 40.56c9.4 17.31 14.11 37.41 14.11 60.28s-4.81 42.97-14.43 60.28c-9.62 17.31-23.04 30.84-40.24 40.56-17.21 9.73-37.14 14.59-59.8 14.59Zm0-38.8c14.32 0 26.82-2.94 37.51-8.82 10.69-5.88 19.02-14.59 25.01-26.13 5.98-11.54 8.98-25.54 8.98-42s-2.94-30.35-8.82-41.68c-5.88-11.33-14.16-19.93-24.85-25.81-10.69-5.88-23.3-8.82-37.84-8.82s-26.51 2.94-37.19 8.82c-10.69 5.88-19.03 14.48-25.01 25.81-5.99 11.33-8.98 25.33-8.98 42s2.94 30.41 8.82 41.84c5.88 11.44 14.16 20.1 24.85 25.97 10.69 5.88 23.19 8.82 37.52 8.82Z" fill="#3300bc" data-color="1"></path>
        <path d="M1358.86 298.75c-23.09 0-43.18-4.86-60.28-14.59-17.1-9.72-30.36-23.25-39.76-40.56-9.41-17.31-14.11-37.52-14.11-60.6s4.81-42.97 14.43-60.28c9.62-17.31 23.03-30.78 40.24-40.4 17.21-9.62 37.03-14.43 59.48-14.43s43.5 4.86 60.6 14.59 30.35 23.25 39.76 40.56c9.4 17.31 14.11 37.41 14.11 60.28s-4.81 42.97-14.43 60.28c-9.62 17.31-23.04 30.84-40.24 40.56-17.21 9.73-37.14 14.59-59.8 14.59Zm0-38.8c14.32 0 26.82-2.94 37.51-8.82 10.69-5.88 19.02-14.59 25.01-26.13 5.98-11.54 8.98-25.54 8.98-42s-2.94-30.35-8.82-41.68c-5.88-11.33-14.16-19.93-24.85-25.81-10.69-5.88-23.3-8.82-37.84-8.82s-26.51 2.94-37.19 8.82c-10.69 5.88-19.03 14.48-25.01 25.81-5.99 11.33-8.98 25.33-8.98 42s2.94 30.41 8.82 41.84c5.88 11.44 14.16 20.1 24.85 25.97 10.69 5.88 23.19 8.82 37.52 8.82Z" fill="#3300bc" data-color="1"></path>
        <path d="M1515.97 295.54V71.09h83.69c23.73 0 44.46 4.33 62.2 12.99 17.74 8.66 31.53 21.32 41.36 38 9.83 16.67 14.75 37.19 14.75 61.56s-4.92 43.34-14.75 60.12c-9.83 16.78-23.84 29.61-42 38.48-18.17 8.87-39.65 13.31-64.45 13.31h-80.8Zm42-36.87h40.4c16.67 0 30.67-2.94 42-8.82 11.33-5.88 19.93-14.37 25.81-25.49 5.88-11.11 8.82-24.69 8.82-40.72 0-17.1-2.84-31.26-8.5-42.49-5.67-11.22-14.16-19.56-25.49-25.01-11.33-5.45-25.55-8.18-42.64-8.18h-40.4v150.7Z" fill="#3300bc" data-color="1"></path>
        <path d="M747.72 575.54V351.09h105.49c15.39 0 28.16 2.57 38.32 7.7 10.15 5.13 17.8 12.13 22.93 21 5.13 8.87 7.7 19.08 7.7 30.62 0 9.83-1.82 19.19-5.45 28.06-3.64 8.87-10.8 15.77-21.48 20.68v.32c10.26 3 18.81 8.87 25.65 17.64 6.84 8.77 10.26 19.24 10.26 31.42 0 13.47-2.89 25.22-8.66 35.27-5.77 10.05-14.16 17.85-25.17 23.41-11.01 5.56-24.53 8.34-40.56 8.34H747.73Zm42-133.07h63.49c9.62 0 16.83-2.29 21.64-6.89 4.81-4.59 7.21-11.49 7.21-20.68s-2.51-15.44-7.54-20.04c-5.02-4.59-12.99-6.89-23.89-6.89h-60.92v54.51Zm0 96.19h64.77c11.33 0 19.77-2.51 25.33-7.54 5.56-5.02 8.34-12.88 8.34-23.57 0-9.4-2.78-16.46-8.34-21.16-5.56-4.7-13.36-7.05-23.41-7.05h-66.69v59.32Z" fill="#3300bc" data-color="1"></path>
        <path d="m941.71 575.54 87.21-224.45h48.74l87.86 224.45h-46.17l-65.73-179.56h-.96l-67.33 179.56h-43.61Zm54.19-44.57V494.1h114.15v36.87H995.9Z" fill="#3300bc" data-color="1"></path>
        <path d="M1195.34 575.54V351.09h100.36c16.24 0 30.3 2.73 42.17 8.18 11.86 5.45 21.11 13.31 27.74 23.57 6.62 10.26 9.94 22.66 9.94 37.2 0 12.18-2.24 22.82-6.73 31.9-4.49 9.09-10.8 16.57-18.92 22.45-8.13 5.88-17.79 10.32-29.02 13.31-11.22 3-23.57 4.49-37.03 4.49h-46.49v83.37h-42Zm42-120.24h54.83c13.04 0 23.14-2.99 30.3-8.98 7.16-5.98 10.74-14.64 10.74-25.97s-3.58-19.29-10.74-24.53c-7.17-5.24-17.48-7.86-30.94-7.86h-54.19v67.33Zm102.93 120.24-54.51-90.1 39.76-8.34 61.56 98.44h-46.81Z" fill="#3300bc" data-color="1"></path>
        <path d="M1420.1 575.54V351.09h83.69c23.73 0 44.46 4.33 62.2 12.99 17.74 8.66 31.53 21.32 41.36 38 9.83 16.67 14.75 37.19 14.75 61.56s-4.92 43.34-14.75 60.12c-9.83 16.78-23.84 29.61-42 38.48-18.17 8.87-39.65 13.31-64.45 13.31h-80.8Zm42-36.87h40.4c16.67 0 30.67-2.94 42-8.82 11.33-5.88 19.93-14.37 25.81-25.49 5.88-11.11 8.82-24.69 8.82-40.72 0-17.1-2.84-31.26-8.5-42.48-5.67-11.22-14.16-19.56-25.49-25.01-11.33-5.45-25.55-8.18-42.64-8.18h-40.4v150.7Z" fill="#3300bc" data-color="1"></path>
        <path d="M1728.24 578.75c-12.18 0-23.73-.86-34.63-2.56-10.9-1.71-21.06-3.85-30.46-6.41l-19.24-5.45 6.73-32.06 23.09 3.85c7.91 1.5 16.88 2.72 26.93 3.69 10.05.96 19.13 1.44 27.25 1.44 15.18 0 26.56-2.41 34.15-7.21 7.58-4.81 11.38-11.91 11.38-21.32 0-4.7-1.23-8.82-3.69-12.34-2.46-3.53-7.32-7-14.59-10.42s-18.17-7.26-32.71-11.54c-17.96-5.34-32.22-10.69-42.81-16.03-10.58-5.34-18.17-11.86-22.77-19.56-4.6-7.7-6.89-17.63-6.89-29.82 0-15.39 3.9-27.84 11.7-37.35 7.8-9.51 18.38-16.51 31.74-21 13.36-4.49 28.27-6.73 44.73-6.73 9.62 0 19.61.75 29.98 2.24 10.37 1.5 20.57 3.64 30.62 6.41l13.47 3.53-6.09 31.74-18.92-2.57c-7.27-1.07-14.96-2.08-23.09-3.05-8.13-.96-16.03-1.44-23.73-1.44-15.82 0-27.74 2.3-35.75 6.89-8.02 4.6-12.02 11.6-12.02 21 0 4.7 1.33 8.61 4.01 11.7 2.67 3.1 7.86 6.04 15.55 8.82 7.7 2.78 19.02 6.31 33.99 10.58 17.74 4.71 31.79 9.94 42.17 15.71 10.37 5.77 17.79 12.56 22.28 20.36 4.49 7.81 6.73 17.37 6.73 28.7 0 16.03-3.96 29.23-11.86 39.6-7.91 10.37-18.6 18.07-32.06 23.09-13.47 5.02-28.54 7.54-45.21 7.54Z" fill="#3300bc" data-color="1"></path>
    </g>
</svg>