<?xml version="1.0" standalone="no"?>
<!DOCTYPE svg PUBLIC "-//W3C//DTD SVG 20010904//EN"
 "http://www.w3.org/TR/2001/REC-SVG-20010904/DTD/svg10.dtd">
<svg version="1.0" xmlns="http://www.w3.org/2000/svg"
 width="329.000000pt" height="329.000000pt" viewBox="0 0 329.000000 329.000000"
 preserveAspectRatio="xMidYMid meet">

<g transform="translate(0.000000,329.000000) scale(0.100000,-0.100000)"
fill="#000000" stroke="none">
<path d="M0 1645 l0 -1645 1645 0 1645 0 0 1645 0 1645 -1645 0 -1645 0 0
-1645z m1880 1028 c74 -7 162 -21 195 -29 33 -9 65 -17 70 -18 69 -16 171 -80
245 -155 106 -107 165 -227 190 -389 13 -76 12 -240 -2 -309 -5 -27 -11 -63
-14 -82 -3 -19 -10 -45 -15 -58 -21 -57 -15 -63 61 -63 39 0 70 -3 70 -7 0
-12 -85 -190 -113 -238 -59 -99 -93 -141 -207 -256 -224 -225 -465 -330 -820
-358 -123 -10 -850 -10 -855 0 -2 3 2 30 9 60 8 30 28 115 45 189 17 74 44
193 61 264 17 71 33 143 36 160 3 17 11 54 19 81 7 28 16 62 19 77 l6 27 -73
3 -74 3 22 95 c48 204 75 326 80 350 2 14 11 52 20 85 21 83 106 454 111 485
14 81 17 85 75 91 111 12 703 6 839 -8z"/>
<path d="M1526 2113 c-10 -43 -33 -145 -52 -228 -19 -82 -42 -179 -50 -215 -8
-36 -17 -73 -20 -82 -4 -15 5 -18 69 -20 l74 -3 -39 -170 c-21 -93 -40 -176
-43 -182 -6 -18 71 -17 159 2 121 26 201 73 278 165 27 33 61 97 89 168 8 22
7 22 -61 22 -40 0 -70 4 -70 10 0 5 9 42 19 82 56 210 48 347 -26 434 -19 22
-69 57 -87 61 -6 1 -36 9 -66 18 -30 8 -77 15 -105 15 l-51 0 -18 -77z"/>
</g>
</svg>
