<svg xmlns="http://www.w3.org/2000/svg" version="1.1" xmlns:xlink="http://www.w3.org/1999/xlink" xmlns:svgjs="http://svgjs.dev/svgjs" width="1000" height="1000" viewBox="0 0 1000 1000"><rect width="1000" height="1000" fill="#97978d"></rect><g transform="matrix(0.7,0,0,0.7,149.57575887170083,410.02602661617334)"><svg viewBox="0 0 396 102" data-background-color="#97978d" preserveAspectRatio="xMidYMid meet" height="257" width="1000" xmlns="http://www.w3.org/2000/svg" xmlns:xlink="http://www.w3.org/1999/xlink"><g id="tight-bounds" transform="matrix(1,0,0,1,0.23999926686639128,0.013592468873355301)"><svg viewBox="0 0 395.52 101.97281506225326" height="101.97281506225326" width="395.52"><g><svg viewBox="0 0 395.52 101.97281506225326" height="101.97281506225326" width="395.52"><g><svg viewBox="0 0 395.52 101.97281506225326" height="101.97281506225326" width="395.52"><g id="textblocktransform"><svg viewBox="0 0 395.52 101.97281506225326" height="101.97281506225326" width="395.52" id="textblock"><g><svg viewBox="0 0 395.52 101.97281506225326" height="101.97281506225326" width="395.52"><g transform="matrix(1,0,0,1,0,0)"><svg width="395.52" viewBox="2.25 -36.5 164.63999938964844 42.45000076293945" height="101.97281506225326" data-palette-color="#ffffff"><g class="undefined-text-0" data-fill-palette-color="primary" id="text-0"><path d="M37.5-2.1L31 3.3Q29.45 4.6 27.05 5.28 24.65 5.95 21.4 5.95L21.4 5.95 4.55 5.95Q3.35 5.95 2.8 5.4 2.25 4.85 2.25 3.65L2.25 3.65 2.25-28.75Q2.25-29.4 2.43-29.85 2.6-30.3 2.95-30.6L2.95-30.6 9.4-36.05Q9.65-36.25 10.08-36.38 10.5-36.5 11-36.5L11-36.5 27.85-36.5Q34.4-36.5 37.52-33.85 40.65-31.2 40.65-25.8L40.65-25.8 40.65-10.2Q40.65-7.5 39.85-5.48 39.05-3.45 37.5-2.1L37.5-2.1ZM11 0L27.85 0Q34.1 0 37.13-2.5 40.15-5 40.15-10.2L40.15-10.2 40.15-25.8Q40.15-31 37.13-33.5 34.1-36 27.85-36L27.85-36 11-36Q10.05-36 9.63-35.58 9.2-35.15 9.2-34.2L9.2-34.2 9.2-1.8Q9.2-0.85 9.63-0.43 10.05 0 11 0L11 0ZM26.75-4.5L14.65-4.5 14.65-31.5 26.75-31.5Q29.3-31.5 30.88-30.95 32.45-30.4 33.3-29.48 34.15-28.55 34.45-27.28 34.75-26 34.75-24.55L34.75-24.55 34.75-11.3Q34.75-9.85 34.48-8.6 34.2-7.35 33.35-6.45 32.5-5.55 30.9-5.03 29.3-4.5 26.75-4.5L26.75-4.5ZM26.75-31L26.75-31 15.15-31 15.15-5 26.75-5Q29.15-5 30.63-5.48 32.1-5.95 32.9-6.78 33.7-7.6 33.98-8.78 34.25-9.95 34.25-11.3L34.25-11.3 34.25-24.55Q34.25-25.9 33.95-27.1 33.65-28.3 32.85-29.15 32.05-30 30.58-30.5 29.1-31 26.75-31ZM20.55-9.45L20.55-26.45 26.5-26.45Q27.7-26.45 28.28-25.88 28.85-25.3 28.85-24.05L28.85-24.05 28.85-11.9Q28.85-10.65 28.28-10.05 27.7-9.45 26.5-9.45L26.5-9.45 20.55-9.45ZM21.9-9.95L21.9-18.6Q21.9-19.25 21.7-19.7 21.5-20.15 21.05-20.35L21.05-20.35 21.05-9.95 21.9-9.95ZM56.55-15.15L56.55-15.15 56.55-13.6 76.05-13.6 76.05-15.15Q76.05-16.5 75.82-17.65 75.6-18.8 75.25-19.8L75.25-19.8 71.8-27.95Q71.25-29.25 70.65-30.13 70.05-31 68.65-31L68.65-31 63.75-31Q62.25-31 61.65-30.13 61.05-29.25 60.55-28L60.55-28 57.35-19.8Q57-18.8 56.77-17.65 56.55-16.5 56.55-15.15ZM62.2-17.9L64.55-25.5Q64.75-25.95 64.97-26.15 65.2-26.35 65.5-26.35L65.5-26.35 66.75-26.35Q67.05-26.35 67.27-26.15 67.5-25.95 67.7-25.5L67.7-25.5 70.05-17.9 62.2-17.9ZM76.55-4.5L76.05-4.5 76.05-13.1 56.55-13.1 56.55-4.5 56.05-4.5 56.05-15.15Q56.05-16.55 56.27-17.73 56.5-18.9 56.9-20L56.9-20 60.1-28.2Q60.65-29.6 61.35-30.55 62.05-31.5 63.75-31.5L63.75-31.5 68.65-31.5Q70.3-31.5 70.97-30.55 71.65-29.6 72.25-28.15L72.25-28.15 75.7-20Q76.1-18.9 76.32-17.73 76.55-16.55 76.55-15.15L76.55-15.15 76.55-4.5ZM61.7-1.8L61.7-1.8 61.7-8.8 70.55-8.8 70.55-1.8Q70.55-0.85 71.02-0.43 71.5 0 72.5 0L72.5 0 80.05 0Q81 0 81.42-0.43 81.85-0.85 81.85-1.8L81.85-1.8 81.85-15Q81.85-16.5 81.37-18.45 80.9-20.4 79.9-23L79.9-23 75.55-34.35Q75.25-35.2 74.62-35.6 74-36 73.05-36L73.05-36 59.6-36Q58.6-36 57.97-35.6 57.35-35.2 57.05-34.35L57.05-34.35 52.7-23Q51.7-20.4 51.22-18.45 50.75-16.5 50.75-15L50.75-15 50.75-1.8Q50.75-0.85 51.17-0.43 51.6 0 52.55 0L52.55 0 59.9 0Q60.85 0 61.27-0.43 61.7-0.85 61.7-1.8ZM61.5 0.05L55 5.45Q54.8 5.65 54.37 5.8 53.95 5.95 53.45 5.95L53.45 5.95 46.1 5.95Q44.9 5.95 44.35 5.4 43.8 4.85 43.8 3.65L43.8 3.65 43.8-9.55Q43.8-11.1 44.27-13.08 44.75-15.05 45.8-17.75L45.8-17.75 50.1-29.05Q50.25-29.5 50.47-29.83 50.7-30.15 50.95-30.4L50.95-30.4 51-30.45 57.4-35.8Q57.8-36.15 58.35-36.33 58.9-36.5 59.6-36.5L59.6-36.5 73.05-36.5Q74.2-36.5 74.92-36.02 75.65-35.55 76-34.55L76-34.55 80.35-23.2Q81.4-20.5 81.87-18.53 82.35-16.55 82.35-15L82.35-15 82.35-1.8Q82.35-1.15 82.17-0.7 82-0.25 81.65 0.05L81.65 0.05 75.15 5.45Q74.95 5.65 74.52 5.8 74.1 5.95 73.6 5.95L73.6 5.95 66.05 5.95Q64.8 5.95 64.2 5.38 63.6 4.8 63.6 3.65L63.6 3.65 63.6-2.85 62.2-2.85 62.2-1.8Q62.2-1.15 62.02-0.7 61.85-0.25 61.5 0.05L61.5 0.05ZM99.6-31.1L99.6-31.1 118-10.4 118-31.5 118.5-31.5 118.5-4.5 118-4.5 118-9.65 99.1-30.85Q99.05-30.9 98.97-30.95 98.9-31 98.85-31L98.85-31Q98.8-31 98.77-30.95 98.75-30.9 98.75-30.85L98.75-30.85 98.75-4.5 98.25-4.5 98.25-30.95Q98.25-31.25 98.45-31.4 98.65-31.55 98.85-31.55L98.85-31.55Q99.05-31.55 99.2-31.45 99.35-31.35 99.6-31.1ZM94.8 0L102.3 0Q103.25 0 103.67-0.43 104.1-0.85 104.1-1.8L104.1-1.8 104.1-18.3 112.65-7.95 112.65-1.8Q112.65-0.85 113.07-0.43 113.5 0 114.45 0L114.45 0 121.95 0Q122.9 0 123.32-0.43 123.75-0.85 123.75-1.8L123.75-1.8 123.75-34.2Q123.75-35.15 123.32-35.58 122.9-36 121.95-36L121.95-36 114.45-36Q113.5-36 113.07-35.58 112.65-35.15 112.65-34.2L112.65-34.2 112.65-23.55 102.95-34.65Q102.3-35.4 101.62-35.7 100.95-36 100-36L100-36 94.8-36Q93.85-36 93.42-35.58 93-35.15 93-34.2L93-34.2 93-1.8Q93-0.85 93.42-0.43 93.85 0 94.8 0L94.8 0ZM103.9 0.05L103.9 0.05 97.4 5.45Q97.2 5.65 96.77 5.8 96.35 5.95 95.85 5.95L95.85 5.95 88.35 5.95Q87.15 5.95 86.6 5.4 86.05 4.85 86.05 3.65L86.05 3.65 86.05-28.75Q86.05-29.4 86.22-29.85 86.4-30.3 86.75-30.6L86.75-30.6 93.2-36.05Q93.45-36.25 93.87-36.38 94.3-36.5 94.8-36.5L94.8-36.5 100-36.5Q101.1-36.5 101.85-36.15 102.6-35.8 103.35-35L103.35-35 106.8-31 112.85-36.05Q113.1-36.25 113.52-36.38 113.95-36.5 114.45-36.5L114.45-36.5 121.95-36.5Q123.15-36.5 123.7-35.95 124.25-35.4 124.25-34.2L124.25-34.2 124.25-1.8Q124.25-1.15 124.07-0.7 123.9-0.25 123.55 0.05L123.55 0.05 117.05 5.45Q116.85 5.65 116.42 5.8 116 5.95 115.5 5.95L115.5 5.95 108 5.95Q106.8 5.95 106.25 5.4 105.7 4.85 105.7 3.65L105.7 3.65 105.7-2.3 104.6-3.65 104.6-1.8Q104.6-1.15 104.42-0.7 104.25-0.25 103.9 0.05ZM142.24-31.1L142.24-31.1 160.64-10.4 160.64-31.5 161.14-31.5 161.14-4.5 160.64-4.5 160.64-9.65 141.74-30.85Q141.69-30.9 141.62-30.95 141.54-31 141.49-31L141.49-31Q141.44-31 141.42-30.95 141.39-30.9 141.39-30.85L141.39-30.85 141.39-4.5 140.89-4.5 140.89-30.95Q140.89-31.25 141.09-31.4 141.29-31.55 141.49-31.55L141.49-31.55Q141.69-31.55 141.84-31.45 141.99-31.35 142.24-31.1ZM137.44 0L144.94 0Q145.89 0 146.32-0.43 146.74-0.85 146.74-1.8L146.74-1.8 146.74-18.3 155.29-7.95 155.29-1.8Q155.29-0.85 155.72-0.43 156.14 0 157.09 0L157.09 0 164.59 0Q165.54 0 165.97-0.43 166.39-0.85 166.39-1.8L166.39-1.8 166.39-34.2Q166.39-35.15 165.97-35.58 165.54-36 164.59-36L164.59-36 157.09-36Q156.14-36 155.72-35.58 155.29-35.15 155.29-34.2L155.29-34.2 155.29-23.55 145.59-34.65Q144.94-35.4 144.27-35.7 143.59-36 142.64-36L142.64-36 137.44-36Q136.49-36 136.07-35.58 135.64-35.15 135.64-34.2L135.64-34.2 135.64-1.8Q135.64-0.85 136.07-0.43 136.49 0 137.44 0L137.44 0ZM146.54 0.05L146.54 0.05 140.04 5.45Q139.84 5.65 139.42 5.8 138.99 5.95 138.49 5.95L138.49 5.95 130.99 5.95Q129.79 5.95 129.24 5.4 128.69 4.85 128.69 3.65L128.69 3.65 128.69-28.75Q128.69-29.4 128.87-29.85 129.04-30.3 129.39-30.6L129.39-30.6 135.84-36.05Q136.09-36.25 136.52-36.38 136.94-36.5 137.44-36.5L137.44-36.5 142.64-36.5Q143.74-36.5 144.49-36.15 145.24-35.8 145.99-35L145.99-35 149.44-31 155.49-36.05Q155.74-36.25 156.17-36.38 156.59-36.5 157.09-36.5L157.09-36.5 164.59-36.5Q165.79-36.5 166.34-35.95 166.89-35.4 166.89-34.2L166.89-34.2 166.89-1.8Q166.89-1.15 166.72-0.7 166.54-0.25 166.19 0.05L166.19 0.05 159.69 5.45Q159.49 5.65 159.07 5.8 158.64 5.95 158.14 5.95L158.14 5.95 150.64 5.95Q149.44 5.95 148.89 5.4 148.34 4.85 148.34 3.65L148.34 3.65 148.34-2.3 147.24-3.65 147.24-1.8Q147.24-1.15 147.07-0.7 146.89-0.25 146.54 0.05Z" fill="#ffffff" data-fill-palette-color="primary"></path></g></svg></g></svg></g></svg></g></svg></g></svg></g><defs></defs></svg><rect width="395.52" height="101.97281506225326" fill="none" stroke="none" visibility="hidden"></rect></g></svg></g></svg>